<svg width="114" height="28" viewBox="0 0 114 28" fill="none" xmlns="http://www.w3.org/2000/svg">
<path d="M13.351 24.6341C19.3535 24.6341 24.2195 19.7681 24.2195 13.7655C24.2195 7.76299 19.3535 2.89697 13.351 2.89697C7.34844 2.89697 2.48242 7.76299 2.48242 13.7655C2.48242 19.7681 7.34844 24.6341 13.351 24.6341Z" fill="black"/>
<path d="M13.3511 0.414429C5.97824 0.414429 0 6.39267 0 13.7655C0 21.1384 5.97824 27.1166 13.3511 27.1166C20.7239 27.1166 26.7022 21.1384 26.7022 13.7655C26.7022 6.39267 20.7239 0.414429 13.3511 0.414429ZM20.7163 10.7322H18.3604V18.5994C18.3604 18.9732 18.4016 19.2631 18.4825 19.463C18.5618 19.6568 18.6595 19.8033 18.777 19.8963C18.8914 19.9879 19.0196 20.0443 19.1569 20.0611C19.3125 20.081 19.4712 20.0901 19.6284 20.0901C19.8374 20.0901 20.0144 20.0871 20.1701 20.0794C20.3532 20.0718 20.434 20.0535 20.4707 20.0382L20.6553 19.9635V20.6898L20.5363 20.7035C20.4142 20.7172 20.2967 20.731 20.1807 20.7447C20.0602 20.7584 19.8466 20.7661 19.5262 20.7661C19.0211 20.7661 18.5862 20.615 18.2307 20.319C17.8691 20.0169 17.6845 19.4661 17.6845 18.6818V10.7322H15.8214H15.7756H13.4655V18.5994C13.4655 18.9732 13.5067 19.2631 13.5876 19.463C13.6669 19.6568 13.7646 19.8033 13.8821 19.8963C13.9965 19.9879 14.1247 20.0443 14.262 20.0611C14.4177 20.081 14.5763 20.0901 14.7335 20.0901C14.9425 20.0901 15.1195 20.0871 15.2752 20.0794C15.4583 20.0718 15.5391 20.0535 15.5758 20.0382L15.7604 19.9635V20.6898L15.6414 20.7035C15.5193 20.7172 15.4018 20.731 15.2859 20.7447C15.1653 20.7584 14.9517 20.7661 14.6313 20.7661C14.1262 20.7661 13.6914 20.615 13.3358 20.319C12.9742 20.0169 12.7896 19.4661 12.7896 18.6818V10.7322H10.9265H10.8808H8.57216V18.5994C8.57216 18.9732 8.61336 19.2631 8.69423 19.463C8.77357 19.6568 8.87123 19.8033 8.98872 19.8963C9.10315 19.9879 9.23133 20.0443 9.36865 20.0611C9.52429 20.081 9.68297 20.0901 9.84013 20.0901C10.0492 20.0901 10.2262 20.0871 10.3818 20.0794C10.5649 20.0718 10.6458 20.0535 10.6824 20.0382L10.867 19.9635V20.6898L10.748 20.7035C10.6259 20.7172 10.5085 20.731 10.3925 20.7447C10.2719 20.7584 10.0583 20.7661 9.7379 20.7661C9.23285 20.7661 8.79799 20.615 8.44247 20.319C8.08084 20.0169 7.89622 19.4661 7.89622 18.6818V10.7322H5.98587V10.0562H7.89469V6.7665H8.57064V10.0562H10.8808H10.9265H12.7896V6.7665H13.4655V10.0562H15.7741H15.8199H17.6829V6.7665H18.3589V10.0562H20.7148V10.7322H20.7163Z" fill="white"/>
<path d="M33.3779 0.414429V27.1166" stroke="#FFC23E" stroke-width="0.762919" stroke-miterlimit="10" stroke-linecap="round"/>
</svg>
